<svg width="44" height="44" viewBox="0 0 44 44" fill="none" xmlns="http://www.w3.org/2000/svg">
<path d="M19.25 31.1666C19.7563 31.1666 20.1667 30.7562 20.1667 30.2499C20.1667 29.7437 19.7563 29.3333 19.25 29.3333C18.7437 29.3333 18.3333 29.7437 18.3333 30.2499C18.3333 30.7562 18.7437 31.1666 19.25 31.1666Z" stroke="#1A1818" stroke-width="1.8" stroke-linecap="round" stroke-linejoin="round"/>
<path d="M29.3333 31.1666C29.8396 31.1666 30.25 30.7562 30.25 30.2499C30.25 29.7437 29.8396 29.3333 29.3333 29.3333C28.8271 29.3333 28.4167 29.7437 28.4167 30.2499C28.4167 30.7562 28.8271 31.1666 29.3333 31.1666Z" stroke="#1A1818" stroke-width="1.8" stroke-linecap="round" stroke-linejoin="round"/>
<path d="M11.9167 11.9167H15.5833L18.04 24.1909C18.1238 24.6129 18.3534 24.992 18.6886 25.2619C19.0237 25.5317 19.4431 25.675 19.8733 25.6667H28.7833C29.2135 25.675 29.6329 25.5317 29.9681 25.2619C30.3032 24.992 30.5328 24.6129 30.6167 24.1909L32.0833 16.5001H16.5" stroke="#1A1818" stroke-width="1.8" stroke-linecap="round" stroke-linejoin="round"/>
<circle cx="35" cy="8" r="3" fill="#EC3C24"/>
</svg>
