<svg width="24" height="24" viewBox="0 0 24 24" fill="none" xmlns="http://www.w3.org/2000/svg">
<path d="M10.6019 5.50042C10.3195 5.19738 9.84497 5.18063 9.54193 5.46301C9.23889 5.74539 9.22214 6.21997 9.50452 6.52301L10.6019 5.50042ZM15.5292 11.8883L16.0727 12.4051L16.5591 11.8935L16.0779 11.377L15.5292 11.8883ZM9.50967 17.1313C9.22426 17.4315 9.23626 17.9062 9.53645 18.1916C9.83665 18.477 10.3114 18.465 10.5968 18.1649L9.50967 17.1313ZM9.50452 6.52301L14.9805 12.3996L16.0779 11.377L10.6019 5.50042L9.50452 6.52301ZM14.9856 11.3716L9.50967 17.1313L10.5968 18.1649L16.0727 12.4051L14.9856 11.3716Z" fill="#1A1818"/>
</svg>
