<svg width="30" height="31" viewBox="0 0 30 31" fill="none" xmlns="http://www.w3.org/2000/svg">
<g clip-path="url(#clip0)">
<path d="M25.9484 6.38101C25.3173 5.74954 24.5678 5.24861 23.743 4.90684C22.9182 4.56507 22.0341 4.38916 21.1413 4.38916C20.2485 4.38916 19.3644 4.56507 18.5395 4.90684C17.7147 5.24861 16.9653 5.74954 16.3341 6.38101L15.0242 7.69093L13.7143 6.38101C12.4394 5.10607 10.7102 4.38982 8.90714 4.38982C7.10411 4.38982 5.37492 5.10607 4.09998 6.38101C2.82505 7.65595 2.1088 9.38513 2.1088 11.1882C2.1088 12.9912 2.82505 14.7204 4.09998 15.9953L5.4099 17.3052L15.0242 26.9195L24.6385 17.3052L25.9484 15.9953C26.5799 15.3641 27.0808 14.6147 27.4226 13.7899C27.7644 12.9651 27.9403 12.081 27.9403 11.1882C27.9403 10.2953 27.7644 9.41125 27.4226 8.58642C27.0808 7.7616 26.5799 7.01219 25.9484 6.38101Z" fill="#FF725F" stroke="#FF725F" stroke-width="2.80976" stroke-linecap="round" stroke-linejoin="round"/>
</g>
<defs>
<clipPath id="clip0">
<rect width="29.6585" height="29.6585" fill="white" transform="translate(0.195129 0.682861)"/>
</clipPath>
</defs>
</svg>
