<svg width="18" height="16" viewBox="0 0 18 16" fill="none" xmlns="http://www.w3.org/2000/svg">
<path d="M8.55732 0.424737C8.74523 0.0685852 9.25529 0.0685861 9.4432 0.424738L11.6407 4.58969C11.7131 4.72703 11.8452 4.82299 11.9982 4.84947L16.6384 5.65233C17.0352 5.72098 17.1928 6.20609 16.9121 6.49486L13.6301 9.8718C13.5218 9.98316 13.4714 10.1384 13.4935 10.2921L14.1638 14.9533C14.2211 15.3519 13.8085 15.6517 13.4471 15.474L9.22124 13.3961C9.08189 13.3276 8.91863 13.3276 8.77928 13.3961L4.5534 15.474C4.19204 15.6517 3.77939 15.3519 3.83671 14.9533L4.50703 10.2921C4.52913 10.1384 4.47868 9.98316 4.37045 9.8718L1.0884 6.49486C0.807746 6.20609 0.965367 5.72098 1.36215 5.65233L6.00231 4.84947C6.15532 4.82299 6.2874 4.72703 6.35986 4.58969L8.55732 0.424737Z" fill="#FFD78A"/>
</svg>
